<svg version="1" xmlns="http://www.w3.org/2000/svg" width="1333.333" height="1333.333" viewBox="0 0 1000.000000 1000.000000"><path d="M82.7 1.6C61.9 5.3 44.4 14.5 29.5 29.5 16.6 42.4 8.1 57 3.1 74.9L.5 84.5v831l2.6 9.6c5 17.9 13.5 32.5 26.4 45.4 15.2 15.3 32.5 24.2 54 28 7.8 1.3 55.9 1.5 416.5 1.5s408.7-.2 416.5-1.5c21.5-3.8 38.8-12.7 54-28 12.9-12.9 21.4-27.5 26.4-45.4l2.6-9.6v-831l-2.6-9.6c-5-17.9-13.5-32.5-26.4-45.4-15.2-15.3-32.5-24.2-54-28C908.7.2 860.7 0 499.1.1 153.1.2 89.3.4 82.7 1.6zm395 323.1c.3 4.6.8 8.3 1.1 8.3.2 0 3.2-2.3 6.6-5.2l6.1-5.2-6.5 6.8-6.5 6.7 8.5-3.2c4.7-1.7 9.6-3.5 11-3.9 1.4-.4 7-2.4 12.4-4.4 17-6.2 11.6-3.1-7.8 4.5-17.8 6.9-22.3 9.2-14 7 5.3-1.3 15.7-2.3 12.4-1.2-1.4.5-4.2.9-6.2 1-6.4.2-4.2 1.6 2.4 1.6 3.5 0 18.7.2 33.8.4 35.6.5 28 1.9-11.5 2.1-18.4.1-28.3.5-27 1.1 1.4.6.1.7-4 .4-4-.3-5.2-.2-3.5.4 7 2.3 34.1 13.4 33.7 13.7-.2.3-9.1-2.7-19.8-6.5-10.6-3.9-19.4-6.9-19.5-6.8-.2.1 2.4 2.5 5.7 5.2 3.2 2.8 5.9 5.4 5.9 5.8 0 .4-2.8-1.6-6.2-4.4l-6.3-5.2-.2 4.9c-.2 2.7-1 9.2-1.9 14.4l-1.7 9.5-1.3-3.8c-.7-2.1-1.8-8.1-2.3-13.4-.6-5.2-1.3-9.8-1.6-10.1-.3-.3-2.8 1.6-5.5 4.3-2.7 2.7-5.2 4.6-5.5 4.3-.3-.3 2.2-3.1 5.6-6.2 3.4-3.1 5.7-5.6 5.3-5.6-.5 0-4.3 1.3-8.4 2.9-13.8 5.3-31.2 11.2-31.6 10.8-.3-.2 7.8-3.6 17.8-7.6 12.8-5 16.9-7 13.8-6.6-3.3.5-4.1.3-3-.4 1.1-.8-7.2-1.1-28-1.2-39.5-.1-48.1-1.5-12.5-2 14.9-.2 29.8-.4 33.2-.3 6.5.1 7.9-1.5 1.5-1.7-2-.1-5-.5-6.7-.9-5.6-1.4 1.3-1.1 10 .5 11.3 2.1 12.1 1.8 3.5-1.4-14.4-5.4-29.2-11.5-28.3-11.8.4-.2 9.4 2.8 19.8 6.6l19 7-6.4-6c-7.8-7.2-7.4-7.7.8-.9 3.4 2.8 6.1 4.7 6.1 4.3.2-5.5 2.1-19.9 3.1-23.3l1.2-4.5 1.4 5.5c.8 3 1.6 9.2 2 13.7zm-315.8 26.8c3.2 6.6 6.2 12.9 6.7 14 .5 1.4 1 0 1.6-5 1.3-10.9 1.8-10.9 1.2 0l-.5 10 3.2-6c1.7-3.3 3.7-6.7 4.3-7.5.7-.8 3.1-4.8 5.5-8.8 6.9-11.9 5.8-8.2-2.3 7.3-4.1 8-7.4 14.5-7.2 14.5.2 0 2.8-2.3 5.7-5 3-2.8 6.3-5.5 7.4-6.1 1.1-.6-.7 1.4-4 4.5-3.3 3-5.7 5.6-5.4 5.6.4 0 4-1.4 8-3.1 12-5.1 38.1-15 38.6-14.6.4.5-7.1 4.2-26.7 13.4-19.6 9.1-18.7 8.4-9.5 7.8 6.8-.3 7.2-.3 3 .5-2.7.4-6.9 1-9.3 1.3-2.3.2-4.5.6-4.7.8-.2.2 6.7 2.4 15.3 4.9 8.6 2.5 14.9 4.6 14.1 4.7-.8.2-7.9-1.2-15.9-3.1-8-1.9-14.6-3.3-14.8-3.1-.1.1 2.4 2.4 5.7 5.1 3.3 2.7 5.8 5 5.6 5.2-.2.2-2.6-1.3-5.2-3.4-7.7-6.2-7.4-6.1-5.9-1.8.8 2.2 3 7.9 5 12.7 2 4.8 3.6 9.6 3.6 10.5 0 1.1 3.2-1.6 8.3-7l8.2-8.7 13.2-1.5c7.3-.9 16.2-1.6 19.8-1.6 5.7 0 6.9.3 9 2.5 1.4 1.3 2.5 3.3 2.5 4.3 0 3.9-4.1 14.8-8.5 22.7-2.4 4.4-5.3 9.6-6.3 11.5-1 1.9-2.9 5.3-4.2 7.5-19.4 33.2-32.7 65.2-44.5 106.5-6.1 21.5-9.5 29-15.3 34.1-8.4 7.4-16.4 8.8-50.5 8.9-22.3 0-23.8-.1-23.3-1.8.3-.9 1.5-6.2 2.6-11.7 2.1-10.1 2.6-12.3 7.5-27.5 5.5-17.3 17.5-44.4 26.4-59.5 1.7-2.8 3.7-6.4 4.7-8 1.5-2.7 15.9-24.5 20.1-30.5 4.1-5.8 17.6-23 23.1-29.5l6-6.9-4.2-8.1c-2.3-4.4-5.2-10.4-6.5-13.3-1.2-3-2.4-5.2-2.7-5-.2.2-.8 2.9-1.3 5.9l-.9 5.4-.1-7-.1-7-1.9 3c-1 1.6-4.7 7.8-8.1 13.7-3.5 6-6.5 10.6-6.7 10.4-.2-.2 2.8-6.5 6.7-14 3.8-7.5 7-13.9 7-14.2 0-.3-1.5.8-3.2 2.4-9 8.1-12.8 11-6.5 4.8 3.8-3.6 6.7-6.6 6.5-6.6-.2 0-4.9 1.8-10.3 4.1-15.8 6.5-36.6 14.1-37.1 13.7-.4-.5 9.5-5.3 33.6-16.5l11.5-5.4-8.5.5-8.5.5 8-1c13.2-1.6 13.8-1.9 8-3.5-15.1-4.2-26.5-7.8-26.1-8.1.4-.4 14.8 2.7 24.9 5.3 3.3.9 6.1 1.3 6.3 1.1.3-.3-1.7-2.1-4.4-4.1-7.2-5.3-8.7-7.8-1.7-2.9 3.2 2.3 6.1 4.1 6.2 3.9.2-.2-1.3-4.3-3.2-9.2-3-7.3-6.2-16.5-9.2-26.3-1.1-3.7 5.2 7.3 10.6 18.4zm346.4-17.8c-.7.2-2.1.2-3 0-1-.3-.4-.5 1.2-.5 1.7 0 2.4.2 1.8.5zm-53.4 8.7c-.2.2-2.6.6-5.4.9-3.4.4-4.2.3-2.5-.3 2.5-.8 8.7-1.3 7.9-.6zm45.9.3c-1 .2-2.8.2-4 0-1.3-.2-.5-.4 1.7-.4 2.2-.1 3.2.1 2.3.4zm4.9.9c-.3.3-1.2.4-1.9.1-.8-.3-.5-.6.6-.6 1.1-.1 1.7.2 1.3.5zm342.7 21.6c-2.5 7.3-5.4 15.4-6.6 18-1.2 2.7-1.8 5.1-1.4 5.5.3.4 2.7-1.3 5.3-3.8 2.5-2.4 4-3.5 3.2-2.3-.8 1.1-3.3 3.7-5.6 5.8-4.4 3.9-5.7 6.4-2.5 4.8 1.4-.8 14.4-4.9 27.7-8.8 1.3-.4 1.7-.3 1 .4-.5.5-7.2 3.1-14.8 5.8l-13.8 4.9 6.5.6c8.5.7 10 2.1 1.7 1.5-6.8-.4-6.9.2-.5 2.7 7.5 2.9 37.5 17 37 17.4-.4.4-19.3-6.1-36.1-12.6l-8-3 6 5.6c4.4 4.2 4.9 4.9 2 2.8-2.2-1.6-5.5-4.4-7.4-6.2-1.9-1.8-3.6-3.1-3.8-2.9-.2.1 1.3 3.6 3.3 7.7 11.4 23.3 12.6 28.9 1.9 8.4-8.6-16.3-8.7-16.4-8.1-8l.5 7-1.2-6.3-1.2-6.4-3.7 8.6-3.7 8.6 9.4 11.8c5.2 6.4 10.5 13 11.7 14.6l2.2 2.9-12.5-.7c-15.6-.9-16.6-1.2-18.5-4.7-.8-1.6-1.9-2.9-2.4-2.9-.6 0-1-.6-1-1.4 0-1.6-12.1-18-15.2-20.7-2.2-1.7-5.8-2.6-5.8-1.3 0 1 4.3 8.5 7.3 12.9 1.5 2.2 3.8 5.6 5.1 7.5 5 7.5 12.4 13.8 32.8 28 15 10.5 27.8 21.1 35.6 29.5 3.9 4.3 7.2 8.3 7.2 8.9 0 .5.6 1.7 1.4 2.5 3.4 3.9 11.8 21.6 15.5 32.9 3.6 11 4.1 13.4 4.1 21.9 0 11-1.1 13.6-8.6 20.1-12.5 11.1-36.7 9-50.7-4.2-9.2-8.7-13.2-16.1-19.7-36.6-4.5-14-6.6-16.7-3-3.9 2.9 10.7 2.7 24.5-.5 31.9-5.1 12-13.7 17.9-27 18.8-21.9 1.4-38.8-13.4-47.3-41.3-1.2-3.9-3.3-12-4.8-18-7.9-33-20.6-72.8-29.5-92.2-1-2.4-1.9-4.6-1.9-4.9 0-.3-.6-2-1.4-3.7-6.7-14.6-10.6-28.6-10.6-38 0-5.6.4-7 2.7-9.7 2.6-3.1 2.8-3.2 9.7-2.8 5.3.3 8.6 1.1 13.1 3.3 13.1 6.5 30.9 22.2 42.5 37.6 3.3 4.4 6 7.8 6 7.6 0-.2-2.5-4.9-5.6-10.3-5.6-9.8-10.4-21.5-10.4-25.3 0-1.1 1.1-3.2 2.4-4.7 2-2.4 3-2.7 7.8-2.6 9.3.2 24.8 7.2 37.6 17l4.3 3.3 9.4-3.3 9.5-3.3-8.8-1.2-8.7-1.1 7.7.2c4.3.1 7.4-.1 7-.5-.4-.3-3.2-1.6-6.2-2.9-14.2-5.9-36.1-16.2-35.6-16.7.4-.5 18.4 5.7 34.1 11.8l10 3.8-6-5.6c-3.3-3.1-5.1-5.1-4-4.5 1.1.6 4.5 3.4 7.5 6.1 3 2.7 5.6 4.9 5.7 4.7.2-.1-2.2-5.3-5.3-11.5-3-6.2-5.3-11.8-5.1-12.4.3-.9 5.4 8 12.7 22.2.4.8.6-2.8.5-8-.3-9.2-.1-8.8 1.1 2.1.6 4.9.8 5.2 1.6 3 5.1-12.6 16.2-35 17.4-35 .2 0-1.7 6-4.2 13.2zm-29.4 0c0 1.7-1 .6-2.5-2.5l-1.6-3.2 2 2.5c1.1 1.4 2.1 2.8 2.1 3.2zm-366.6 7.2c5.4 4.1 9.2 10.6 10.6 18.3 1.3 6.6.9 32-.6 42l-.7 4.3h-13.8c-10.5 0-13.9-.3-13.9-1.3 0-.6.7-5.3 1.5-10.2 2-12.3 2-19.4-.2-20.2-2-.8-4.9 2.5-6.3 7.5-.6 2-1.4 8.2-1.7 13.7-.7 12.2-.1 13.9 9.3 26.1 15 19.7 19.9 29.2 22 42.9 3 19.4.9 56.7-3.7 68.9-2.8 7.1-11 15.9-18 19.4-13.9 6.7-30.8 4.6-41.8-5.4-9.3-8.3-12.8-20.1-11.8-40.3.3-6.9 1.1-16.5 1.8-21.4l1.2-8.7H417.6l-.7 6.5c-.5 3.6-1 12.9-1.1 20.6-.3 12.9-.1 14.2 1.6 15.5 2.4 1.7 2.8 1.7 4.9.1 4.1-3 6.3-29 3.2-38.2-1.8-5.1-3.9-8.4-11.2-17.7-8.3-10.4-14.9-21-16.8-26.8-1.9-5.8-2.5-18.3-1.3-28.5.4-3.6.4-4.8-.1-3-1.4 5.1-7.4 39.7-9.2 53-.5 3.8-1.6 11.7-2.4 17.5-.8 5.8-1.9 15.4-2.4 21.5-3.4 38.6-4.1 46.5-4.3 50.5l-.3 4.5-14.7.3c-13.3.2-14.7.1-15.1-1.5-2.2-7.7-5.4-42.9-6.4-70.8-.4-9.9-.8-17.1-1-16-.2 1.1-1.2 6.7-2.3 12.5-3 16.6-5.7 37-7.6 57.1l-1.8 18.6-74.9.7c-41.2.4-75.2.5-75.4.2-1.3-1.3 4.3-31.4 8.9-48.1 4.3-15.4 12.7-39.9 16.8-49 .5-1.1 2.3-5.4 4.1-9.5 3.1-7.3 14.4-29.8 18.7-37.3 4-6.8 6.5-11.2 7.6-13.2 1.9-3.3 11.5-18 26.3-40l2.2-3.2 12.8-1.2c24.5-2.3 30.3-2.7 30.3-1.9 0 .4-1.4 3.1-3.1 6-5.2 8.7-9 16-8.6 16.4.2.2 3.3-5 7.1-11.6 3.7-6.6 7.2-12 7.9-12 .7 0 10.2-.7 21.1-1.5 11-.8 20.1-1.3 20.3-1.1.2.2-.6 2.5-1.8 5.2-8.6 19.8-14.4 35-12.6 33.4.3-.3 2.6-5.7 5-12 2.5-6.3 6.1-14.9 8-19.1l3.4-7.6 5.4-.6c3-.4 7.8-.7 10.7-.7 6 0 6 0 3.7 9.8-3.9 16.5-8.7 58-8.4 73.4l.1 5.3 1.9-8c4.1-17.5 5.8-24.4 8.4-33.5 1.4-5.2 3-11.1 3.4-13.1.4-1.9 1.5-5.7 2.4-8.5.9-2.7 3.1-9.4 4.8-14.9 1.6-5.5 3.3-10.3 3.7-10.6.4-.4 5.5-1 11.5-1.4l10.7-.7-.9 2.4c-.4 1.2-2 7.1-3.5 13.1-1.4 5.9-3.7 15.5-5.2 21.3-1.4 5.8-2.4 10.8-2.2 11 .3.2 1.7-4 3.2-9.4 4-14.3 9.2-24.6 16.2-32.1 8-8.7 13.5-11.3 23-10.9 6 .3 7.7.8 10.8 3.2zm71.2 1.6c9.3 2 14.9 8.7 19.8 23.7 4.2 13.2 5.9 24.5 6.3 44.5.5 18 .4 18.8-1.8 22.7-1.5 2.8-3.7 4.8-6.6 6.2l-4.3 2.1 3.9 2.6c9.2 6.3 12.7 14.1 14.2 31.9.6 7 1.3 13 1.5 13.2.2.3.4-19.1.3-43-.2-38.4-1.4-73.3-3.4-97.2l-.6-7.7 9.8.1c5.4.1 13.8.4 18.7.8l8.8.6 4.9 15c7.4 22.6 12.5 39.3 19.7 64.5 2.5 8.3 14.4 56.9 16.8 67.8.9 4.5 1.9 8 2.1 7.8.2-.2-.4-4.8-1.2-10.2-.9-5.4-2-13.5-2.5-17.9-.5-4.4-1.6-11.8-2.5-16.5-.9-4.7-2.7-14.6-4.1-22-1.4-7.4-3.2-16.2-3.9-19.5-.8-3.3-2.6-11-4-17-3.8-16.6-8-32.6-12.1-45.7-.8-2.6-1.4-5-1.4-5.5 0-.4 5.3-.5 11.7-.1 6.5.3 14 .7 16.6.7l4.8.1 4.5 9.7c2.5 5.4 5.1 11.1 5.8 12.8.7 1.6 2.2 5 3.3 7.5 3.9 8.9 5.1 11.7 11.8 28.5 9.1 23 11.2 28.5 11.9 31.9.4 1.5.9 2.6 1.1 2.4 1.8-1.7-13.3-60.2-20.2-78.3-2.9-7.8-4.4-12.7-4-13.1.4-.4 30.4 1.5 32.2 2 .6.2 4.9 8.2 9.7 17.7 10.3 20.9 11.5 23.3 21.3 46.4.7 1.6 2.3 5.7 3.5 9 1.2 3.3 2.7 7.3 3.4 9 3 7.2 13.6 42.4 16.6 55 4.7 20.1 11 57.1 11 64.7v2.8h-15.4c-17.8 0-16 1.3-17.1-13-2-27.5-11.2-71.3-23.1-109.8-2.4-7.8-2.8-5.7-.6 2.9 7 27.3 12 69 12.5 105.9l.2 13.5-10.7.3c-12 .3-11.1.9-12.3-8.3-.4-2.8-2.2-12.7-4.2-22-1.9-9.4-3.8-18.8-4.3-21-2.7-14.7-19.6-73.3-20.7-72.1-.3.2.4 4.2 1.5 8.8 6.9 27.6 13.2 67.2 15.2 95.3.6 7.7 1.1 15.1 1.3 16.5l.2 2.5-18 .3c-9.9.2-23.9 0-31.1-.3l-13.2-.7-1.2-11.6c-.6-6.5-1.5-14.6-1.8-18.2l-.7-6.5-6.7-.3-6.8-.3V583H525.3l-.6-40.8c-.3-22.4-1.1-43-1.7-45.7-.6-2.9-1.9-5.7-3.1-6.8-2.5-2-7-2.3-6.4-.5.2.7.6 22.1.9 47.5l.6 46.3h-35.5l.2-19.7c.2-10.9.8-38 1.4-60.3.5-22.3 1.4-55.6 1.9-74 .9-33.8 1.8-53.3 2.6-55.9.4-1.2 3.3-1.3 16.7-.8 8.9.3 18.5 1.1 21.3 1.7z"/><path d="M193.7 431.2c-27.2 39.2-43.4 71.6-56 112.4-.9 2.7-1.9 5.8-2.3 6.9-.7 1.6-.4 1.7 2.5 1.2 4.6-1 8.1-3.8 9.6-7.8.7-1.9 2.9-7.9 4.9-13.3 4.2-11.7 8.2-21.9 10.2-26.3.8-1.7 1.4-3.4 1.4-3.7 0-2.3 17-35.1 25.3-48.7 1.2-2 5.5-9.1 9.6-15.7 4-6.6 7-12.5 6.6-13.1-.3-.6-1.7-1.1-3-1.1-1.9 0-3.8 2-8.8 9.2zM819.2 402.5l-9.3 3 3.2 2.7c1.7 1.6 3.4 2.8 3.8 2.8.4 0 2.5-1.8 4.6-4 2.1-2.2 4.4-4 5-4 .5.1-1.2 2-3.8 4.4-4.9 4.4-5.3 6.1-1.7 8.4 1.7 1.1 2.1.7 4.1-3.6 1.1-2.6 2.2-5.9 2.3-7.3.2-1.4.6-3.1 1-3.8.5-.7.6-1.3.5-1.4-.2-.2-4.6 1.1-9.7 2.8zM730.9 413.2c-.3 3.1.6 5.6 5.6 15.6 6.9 13.9 14.3 29.8 16 34.2.7 1.9 2.3 6 3.5 9 7.5 18.8 14.1 38.9 18.8 57.5 4.5 17.5 5.2 19.8 6.7 22.1 1.6 2.5 5.8 3.3 7.1 1.2 3.5-5.7-11.4-57.1-25.8-88.8-6.4-14.1-18.2-37.3-21.7-42.7-5-7.6-9.9-11.5-10.2-8.1zM793.9 466.3c8 16 12.3 25.9 17.3 39.5 1.6 4.5 3.3 8 3.7 7.8.3-.2 7.6-.1 16.1.2l15.5.7 2.3 6.5c1.2 3.6 3.8 11.4 5.7 17.4 2 5.9 4.3 12.1 5.2 13.8 1.8 2.9 5.3 4.5 7.2 3.3 2.8-1.7-.4-17.2-6.1-29.2-3.3-7-9.1-12.7-27.7-27.1-9.7-7.5-19.8-15.6-22.5-18.2-5.8-5.4-14.8-16.3-20.1-24.3-2.1-3.1-3.9-5.7-4-5.7-.1 0 3.3 6.9 7.4 15.3zM815.1 516.5c-.1.5.8 3.2 1.9 6 1.2 2.7 1.8 3.7 1.5 2.1-.7-3.4-3.3-9.6-3.4-8.1zM291.9 407.2c-.7 1.2-2.6 4.8-4.1 7.9-3.1 6.4-3.9 6.9-11.1 6.9-12.4 0-11.4-.8-20.4 17.9-4.5 9.1-8.4 17.5-8.7 18.6-.6 1.9-.2 2 8.9 1.7l9.6-.4-2.1 5.4c-1.2 2.9-3.7 9.8-5.6 15.3-7.1 20.3-6 18.5-10.8 18.5-2.4 0-7 .3-10.3.6l-5.9.6-2.2 6.7c-3.5 10.9-5 16.1-7.2 25.1-1.1 4.7-2.3 9.3-2.6 10.2-.5 1.6.2 1.8 4.9 1.8 3 0 8.8-.3 12.9-.6l7.4-.7 1.8-8.6c1-4.7 2.7-11.6 3.7-15.2 1.1-3.6 1.9-7.3 1.9-8.1 0-1.8 10.7-34.5 14.4-44.3 6.5-16.8 15.1-36.3 22.2-50.5 2.9-5.7 5.1-10.6 4.9-10.8-.2-.2-.9.7-1.6 2zM335 417.7c0 .6-4 1.2-9.6 1.5-5.2.3-10 1-10.5 1.5-1 1-5.9 12.4-8.9 20.8-1 2.7-2.7 7.6-3.8 10.7l-2.1 5.8h9.5c6.7 0 9.4.3 9.4 1.2 0 .7-.9 4.2-1.9 7.8-3.3 11.1-6 21.3-6.7 25.3-.3 2.1-1.4 4.2-2.5 4.7-1 .6-5.8 1-10.8 1-7.7 0-9 .3-9.5 1.7-2.5 8.6-9 42.2-8.3 42.9.3.3 5.9.2 12.5-.2l12.1-.7 1.2-7.1c1.9-11.8 6.9-36.7 8.5-43.1 4.4-17.1 5.9-22.7 8.2-30.5 3.3-11.2 10.7-33.8 12.8-39 .9-2.2 1.4-4.4 1-4.7-.3-.4-.6-.2-.6.4zM397.5 429c-.4 1.7-.5 3.4-.2 3.6.2.3.7-1 1.1-2.7.8-4.2 0-5-.9-.9zM512.3 424.2c.4 8.3.7 18.6.7 23 0 7 .2 7.8 1.9 7.8 1 0 2.9-.9 4.2-1.9 2.4-1.9 2.4-2.1 2.1-18.8-.3-21.1-1.6-25.3-7.8-25.3-1.6 0-1.7 1.2-1.1 15.2zM582.1 424.6c0 1.1.3 1.4.6.6.3-.7.2-1.6-.1-1.9-.3-.4-.6.2-.5 1.3zM583.6 436.5c.3 5.5.9 14.7 1.4 20.5.5 5.8 1.2 16.6 1.6 24 .3 7.4.7 15.3.9 17.5.2 2.2.4 5.5.4 7.2l.1 3.3h11.3l-.7-3.3c-.4-1.7-1.4-7.3-2.2-12.2-.8-5-2.1-12.2-2.8-16-.8-3.9-2.4-12-3.6-18-1.2-6.1-3-14.8-4.1-19.5-1-4.7-2-9.6-2.3-11-.2-1.4-.2 2 0 7.5z"/></svg>